<svg xmlns="http://www.w3.org/2000/svg" xmlns:xlink="http://www.w3.org/1999/xlink" width="1920" height="2412" viewBox="0 0 1920 2412">
  <defs>
    <style>
      .cls-1 {
        fill: #fff;
        stroke: #707070;
      }

      .cls-2 {
        clip-path: url(#clip-path);
      }

      .cls-3 {
        fill: url(#radial-gradient);
      }

      .cls-4, .cls-5 {
        stroke: none;
      }

      .cls-5 {
        fill: #707070;
      }
    </style>
    <clipPath id="clip-path">
      <rect id="Rectangle_93" data-name="Rectangle 93" class="cls-1" width="1920" height="2412" transform="translate(189 912)"/>
    </clipPath>
    <radialGradient id="radial-gradient" cx="0.5" cy="0.5" r="0.5" gradientUnits="objectBoundingBox">
      <stop offset="0" stop-color="#fff6b9" stop-opacity="0.451"/>
      <stop offset="0.167" stop-color="#f9dfc0"/>
      <stop offset="0.331" stop-color="#eeaeab" stop-opacity="0.69"/>
      <stop offset="0.44" stop-color="#c2b0ec" stop-opacity="0.651"/>
      <stop offset="0.551" stop-color="#bae1ff" stop-opacity="0.702"/>
      <stop offset="0.883" stop-color="#bbfbd6" stop-opacity="0.749"/>
      <stop offset="1" stop-color="#f8f6c2" stop-opacity="0.431"/>
    </radialGradient>
  </defs>
  <g id="Mask_Group_10" data-name="Mask Group 10" class="cls-2" transform="translate(-189 -912)">
    <g id="Path_85" data-name="Path 85" class="cls-3" transform="matrix(-0.602, -0.799, 0.799, -0.602, 569.756, 5122.958)">
      <path class="cls-4" d="M 658.3277587890625 4073.34130859375 C 641.0052490234375 4073.34130859375 623.7662353515625 4072.62939453125 607.0897216796875 4071.225341796875 C 590.6012573242188 4069.8369140625 574.2697143554688 4067.738525390625 558.5482177734375 4064.989013671875 C 542.9747314453125 4062.264892578125 527.6322631835938 4058.83740234375 512.94775390625 4054.801513671875 C 498.3697509765625 4050.794921875 484.0992431640625 4046.094970703125 470.53125 4040.83251953125 C 457.03173828125 4035.595947265625 443.9142456054688 4029.680908203125 431.5432434082031 4023.2509765625 C 419.2047424316406 4016.83837890625 407.3222351074219 4009.764892578125 396.2262573242188 4002.226806640625 C 385.1322326660156 3994.69091796875 374.5667419433594 3986.516357421875 364.82275390625 3977.929443359375 C 355.0572509765625 3969.323974609375 345.8902282714844 3960.10498046875 337.5757446289062 3950.52734375 C 311.7747497558594 3920.808837890625 293.313232421875 3886.884033203125 282.7042541503906 3849.6953125 C 271.73974609375 3811.262451171875 269.3037414550781 3769.7548828125 275.4637451171875 3726.325439453125 L 649.84326171875 1086.914428710938 C 651.8927612304688 1072.465454101562 654.916259765625 1057.744873046875 658.8302612304688 1043.163452148438 C 662.687744140625 1028.791381835938 667.5037231445312 1014.204406738281 673.1437377929688 999.8079223632812 C 678.7117309570312 985.595947265625 685.2167358398438 971.2284545898438 692.478759765625 957.1034545898438 C 699.6592407226562 943.1359252929688 707.750732421875 929.0739135742188 716.5282592773438 915.3079223632812 C 733.8997192382812 888.0619506835938 754.4287719726562 861.1994018554688 777.5447387695312 835.4674072265625 C 800.4432373046875 809.9779052734375 826.0782470703125 785.3744506835938 853.7382202148438 762.3414306640625 C 881.3992309570312 739.3069458007812 911.313232421875 717.6529541015625 942.6487426757812 697.9814453125 C 974.2852172851562 678.1204223632812 1007.649719238281 660.1058959960938 1041.815185546875 644.4384155273438 C 1076.61279296875 628.4814453125 1112.599731445312 614.79541015625 1148.777221679688 603.7619018554688 C 1167.167724609375 598.1529541015625 1185.8857421875 593.14892578125 1204.412231445312 588.888427734375 C 1223.209716796875 584.5654296875 1242.273193359375 580.9019165039062 1261.07275390625 577.9989013671875 L 3378.942138671875 250.9959259033203 C 3397.38525390625 248.1484222412109 3415.893310546875 245.9849243164062 3433.9521484375 244.5649261474609 C 3451.754150390625 243.1659240722656 3469.541259765625 242.4564208984375 3486.8193359375 242.4564208984375 C 3504.141845703125 242.4564208984375 3521.380859375 243.1684265136719 3538.05712890625 244.5724182128906 C 3554.545654296875 245.9609222412109 3570.877685546875 248.0594329833984 3586.5986328125 250.8089294433594 C 3602.1728515625 253.5329284667969 3617.51513671875 256.9604187011719 3632.19970703125 260.9964294433594 C 3646.77734375 265.0029296875 3661.04833984375 269.7029113769531 3674.61572265625 274.9654235839844 C 3688.115234375 280.2019348144531 3701.232666015625 286.1169128417969 3713.604248046875 292.5469360351562 C 3725.942138671875 298.9594116210938 3737.82470703125 306.0329284667969 3748.921142578125 313.5709228515625 C 3760.0146484375 321.1064147949219 3770.580322265625 329.2814331054688 3780.32421875 337.8684387207031 C 3790.08984375 346.4739379882812 3799.2568359375 355.6929321289062 3807.57177734375 365.2704162597656 C 3833.372314453125 394.9889221191406 3851.833740234375 428.9139404296875 3862.443359375 466.1019287109375 C 3873.4072265625 504.5354309082031 3875.84326171875 546.0429077148438 3869.683349609375 589.471923828125 L 3495.3037109375 3228.883544921875 C 3493.254150390625 3243.33251953125 3490.230712890625 3258.052490234375 3486.316650390625 3272.634521484375 C 3482.459228515625 3287.00634765625 3477.643310546875 3301.593505859375 3472.003173828125 3315.989990234375 C 3466.435302734375 3330.201416015625 3459.93017578125 3344.5693359375 3452.668212890625 3358.69384765625 C 3445.4873046875 3372.661865234375 3437.396240234375 3386.723876953125 3428.61865234375 3400.489990234375 C 3411.247314453125 3427.73583984375 3390.71826171875 3454.597900390625 3367.602294921875 3480.329833984375 C 3344.703857421875 3505.81982421875 3319.06884765625 3530.4228515625 3291.40869140625 3553.45654296875 C 3263.747802734375 3576.490966796875 3233.833740234375 3598.14453125 3202.498291015625 3617.81640625 C 3170.86181640625 3637.677490234375 3137.497314453125 3655.69189453125 3103.331787109375 3671.359375 C 3068.5341796875 3687.31640625 3032.54736328125 3701.00244140625 2996.36962890625 3712.035888671875 C 2977.979248046875 3717.64501953125 2959.26123046875 3722.64892578125 2940.73486328125 3726.909423828125 C 2921.937255859375 3731.232421875 2902.873779296875 3734.89599609375 2884.07421875 3737.798828125 L 766.2047119140625 4064.802001953125 C 747.76171875 4067.6494140625 729.2537231445312 4069.81298828125 711.1947631835938 4071.23291015625 C 693.3932495117188 4072.6318359375 675.6062622070312 4073.34130859375 658.3277587890625 4073.34130859375 Z"/>
      <path class="cls-5" d="M 3486.818359375 242.955810546875 C 3469.552734375 242.955810546875 3451.779296875 243.6650390625 3433.9912109375 245.06298828125 C 3415.94482421875 246.48193359375 3397.44921875 248.64404296875 3379.018310546875 251.489990234375 L 1261.148681640625 578.493408203125 C 1242.361328125 581.39404296875 1223.310302734375 585.055419921875 1204.524169921875 589.37548828125 C 1186.00927734375 593.633544921875 1167.30224609375 598.634521484375 1148.92333984375 604.239990234375 C 1112.767333984375 615.267333984375 1076.80078125 628.94482421875 1042.023681640625 644.892822265625 C 1007.877685546875 660.551513671875 974.53271484375 678.555419921875 942.914794921875 698.404541015625 C 911.59765625 718.064453125 881.7021484375 739.704833984375 854.058349609375 762.725341796875 C 826.416748046875 785.742919921875 800.79931640625 810.329345703125 777.916748046875 835.801513671875 C 754.8193359375 861.513427734375 734.306640625 888.353515625 716.94970703125 915.576416015625 C 708.1806640625 929.329345703125 700.09716796875 943.3779296875 692.92333984375 957.33203125 C 685.669189453125 971.44140625 679.171142578125 985.7939453125 673.609130859375 999.989990234375 C 667.975830078125 1014.369384765625 663.165771484375 1028.9384765625 659.313232421875 1043.29248046875 C 655.40478515625 1057.85498046875 652.38525390625 1072.554931640625 650.338134765625 1086.984375 L 275.958740234375 3726.39599609375 C 269.808837890625 3769.7548828125 272.23974609375 3811.19287109375 283.184814453125 3849.557861328125 C 293.773193359375 3886.67529296875 312.2001953125 3920.536376953125 337.9521484375 3950.199462890625 C 346.252685546875 3959.760009765625 355.404296875 3968.96337890625 365.15283203125 3977.553955078125 C 374.88134765625 3986.126953125 385.4296875 3994.2890625 396.50634765625 4001.8134765625 C 407.586669921875 4009.33984375 419.4521484375 4016.4033203125 431.773193359375 4022.807373046875 C 444.128173828125 4029.22900390625 457.229248046875 4035.136474609375 470.711669921875 4040.365966796875 C 484.263671875 4045.62255859375 498.518310546875 4050.31689453125 513.079833984375 4054.31884765625 C 527.749267578125 4058.350830078125 543.07568359375 4061.77490234375 558.63427734375 4064.495849609375 C 574.3408203125 4067.243408203125 590.65771484375 4069.33935546875 607.1318359375 4070.72705078125 C 623.794189453125 4072.1298828125 641.019287109375 4072.84130859375 658.32763671875 4072.84130859375 C 675.59326171875 4072.84130859375 693.36669921875 4072.13232421875 711.1552734375 4070.734375 C 729.2021484375 4069.3154296875 747.69775390625 4067.1533203125 766.128662109375 4064.307373046875 L 2883.998291015625 3737.304443359375 C 2902.78564453125 3734.40380859375 2921.8369140625 3730.742431640625 2940.622802734375 3726.42236328125 C 2959.1376953125 3722.16455078125 2977.8447265625 3717.16357421875 2996.2236328125 3711.557861328125 C 3032.3798828125 3700.5302734375 3068.34619140625 3686.85302734375 3103.123291015625 3670.90478515625 C 3137.269287109375 3655.246337890625 3170.6142578125 3637.242431640625 3202.232177734375 3617.39306640625 C 3233.54931640625 3597.73291015625 3263.44482421875 3576.09228515625 3291.0888671875 3553.07177734375 C 3318.730224609375 3530.054443359375 3344.34765625 3505.4677734375 3367.230224609375 3479.995849609375 C 3390.32763671875 3454.283935546875 3410.84033203125 3427.44384765625 3428.197265625 3400.220947265625 C 3436.96630859375 3386.4677734375 3445.0498046875 3372.41943359375 3452.2236328125 3358.46533203125 C 3459.477783203125 3344.35595703125 3465.975830078125 3330.00341796875 3471.53759765625 3315.807373046875 C 3477.17138671875 3301.427978515625 3481.981201171875 3286.85888671875 3485.833740234375 3272.5048828125 C 3489.7421875 3257.9423828125 3492.76171875 3243.242431640625 3494.80859375 3228.81298828125 L 3869.188232421875 589.4013671875 C 3875.33837890625 546.04248046875 3872.9072265625 504.60498046875 3861.962158203125 466.239501953125 C 3851.373291015625 429.121826171875 3832.94677734375 395.261474609375 3807.19384765625 365.598388671875 C 3798.893798828125 356.037841796875 3789.7421875 346.83447265625 3779.99365234375 338.243408203125 C 3770.26513671875 329.67041015625 3759.71630859375 321.508544921875 3748.6396484375 313.984375 C 3737.559814453125 306.45751953125 3725.6943359375 299.39404296875 3713.373291015625 292.990478515625 C 3701.017822265625 286.56884765625 3687.916748046875 280.660888671875 3674.434326171875 275.431396484375 C 3660.8828125 270.1748046875 3646.627685546875 265.48046875 3632.066162109375 261.478515625 C 3617.396728515625 257.447021484375 3602.0703125 254.0224609375 3586.51171875 251.301513671875 C 3570.80517578125 248.553955078125 3554.48828125 246.4580078125 3538.01416015625 245.0703125 C 3521.351806640625 243.66748046875 3504.126708984375 242.955810546875 3486.818359375 242.955810546875 M 3486.818359375 241.9560546875 C 3733.616943359375 241.9560546875 3899.333251953125 383.994873046875 3870.17822265625 589.5419921875 L 3495.798828125 3228.953369140625 C 3462.56884765625 3463.22705078125 3188.724609375 3691.265869140625 2884.15087890625 3738.29296875 L 766.28125 4065.2958984375 C 728.934326171875 4071.062255859375 692.8193359375 4073.841552734375 658.32763671875 4073.841552734375 C 411.528564453125 4073.841552734375 245.8134765625 3931.802734375 274.96875 3726.25537109375 L 649.34814453125 1086.843994140625 C 682.578125 852.5703125 956.42236328125 624.531494140625 1260.996337890625 577.5048828125 L 3378.86572265625 250.50146484375 C 3416.21240234375 244.735107421875 3452.32666015625 241.9560546875 3486.818359375 241.9560546875 Z"/>
    </g>
  </g>
</svg>
